<svg width="18" height="18" viewBox="0 0 18 18" fill="none" xmlns="http://www.w3.org/2000/svg">
<g clip-path="url(#clip0_22_1611)">
<path d="M9 18C13.9706 18 18 13.9706 18 9C18 4.02944 13.9706 0 9 0C4.02944 0 0 4.02944 0 9C0 13.9706 4.02944 18 9 18Z" fill="#3E73C4"/>
<path d="M11.2624 10.1946C11.2624 8.9999 10.5424 8.5904 9.10238 8.4194C8.07413 8.28271 7.86881 8.0099 7.86881 7.53177C7.86881 7.05365 8.21194 6.74652 8.89706 6.74652C9.51413 6.74652 9.85725 6.95127 10.0283 7.46371C10.0461 7.51326 10.0786 7.55616 10.1216 7.58663C10.1645 7.61711 10.2158 7.63369 10.2684 7.63415H10.8169C10.8486 7.63499 10.8801 7.62939 10.9095 7.61769C10.939 7.60599 10.9657 7.58843 10.9882 7.56608C11.0107 7.54373 11.0283 7.51704 11.0402 7.48765C11.052 7.45826 11.0578 7.42676 11.0571 7.39508V7.36133C10.99 6.99059 10.8025 6.65236 10.5234 6.39919C10.2444 6.14601 9.88962 5.99207 9.51413 5.96127V5.14227C9.51413 5.00558 9.41119 4.90321 9.24019 4.8689H8.7255C8.58881 4.8689 8.48588 4.97127 8.45156 5.14227V5.92752C7.42275 6.06365 6.77194 6.74652 6.77194 7.6004C6.77194 8.72652 7.45706 9.17033 8.89706 9.34133C9.85725 9.51177 10.1655 9.71708 10.1655 10.2633C10.1655 10.8089 9.68569 11.1846 9.03431 11.1846C8.14275 11.1846 7.8345 10.8095 7.73156 10.297C7.69781 10.1609 7.59431 10.0923 7.49138 10.0923H6.90863C6.877 10.0915 6.84554 10.0972 6.81616 10.1089C6.78677 10.1206 6.76008 10.1382 6.73768 10.1605C6.71528 10.1829 6.69764 10.2095 6.68584 10.2389C6.67404 10.2683 6.66831 10.2997 6.669 10.3313V10.3651C6.80569 11.219 7.35469 11.8332 8.48588 12.0042V12.8238C8.48588 12.9599 8.58881 13.0628 8.75981 13.0966H9.2745C9.41119 13.0966 9.51413 12.9942 9.54844 12.8238V12.0036C10.5773 11.8332 11.2624 11.116 11.2624 10.1941V10.1946Z" fill="white"/>
<path d="M7.25176 13.7796C4.57763 12.8233 3.20626 9.85331 4.20076 7.22475C4.71488 5.79037 5.84607 4.69856 7.25176 4.18612C7.38901 4.11806 7.45707 4.01569 7.45707 3.84469V3.36656C7.45707 3.23044 7.38901 3.12806 7.25176 3.09375C7.21745 3.09375 7.14882 3.09375 7.11451 3.1275C6.343 3.36843 5.62677 3.7596 5.00706 4.27847C4.38735 4.79735 3.87639 5.43368 3.50362 6.15084C3.13085 6.868 2.90362 7.65181 2.83501 8.45715C2.76641 9.26248 2.85779 10.0734 3.10388 10.8433C3.72038 12.7558 5.1947 14.2239 7.11451 14.8382C7.25176 14.9062 7.38901 14.8382 7.42276 14.7015C7.45707 14.6677 7.45707 14.6329 7.45707 14.5648V14.0867C7.45707 13.9843 7.3547 13.8482 7.25176 13.7796ZM10.8855 3.12806C10.7483 3.05944 10.611 3.12806 10.5773 3.26419C10.5429 3.2985 10.5429 3.33281 10.5429 3.40088V3.879C10.5429 4.01569 10.6453 4.15181 10.7483 4.22044C13.4224 5.17669 14.7938 8.14669 13.7993 10.7752C13.2851 12.2096 12.1539 13.3014 10.7483 13.8139C10.611 13.8819 10.5429 13.9843 10.5429 14.1553V14.6334C10.5429 14.7696 10.611 14.8719 10.7483 14.9062C10.7826 14.9062 10.8512 14.9062 10.8855 14.8725C11.657 14.6316 12.3732 14.2404 12.993 13.7215C13.6127 13.2027 14.1236 12.5663 14.4964 11.8492C14.8692 11.132 15.0964 10.3482 15.165 9.54285C15.2336 8.73752 15.1422 7.92656 14.8961 7.15669C14.2796 5.21044 12.771 3.74231 10.8855 3.12806Z" fill="white"/>
</g>
<defs>
<clipPath id="clip0_22_1611">
<rect width="18" height="18" fill="white"/>
</clipPath>
</defs>
</svg>
